PathFileType	4	(X/Y/Z)	C:\Users\ebm\Documents\Erivelton\Erivelton2\wc2.trc
DataRate	CameraRate	NumFrames	NumMarkers	Units	OrigDataRate	OrigDataStartFrame	OrigNumFrames
150.00	150.00	      8	28	mm	150.00	521	      1389
Frame#	Time	IJ			PX			C7			T8			RAC			RAS			RPS			RAI			RPI			RLE			RME			RRS			RUS			R3M			R5M			LAC			LAS			LPS			LAI			LPI			LLE			LME			LRS			LUS			L3M			L5M			RW			LW			V_mid_elbow_r			V_mid_elbow_l			V_mid_wrist_r			V_mid_wrist_l			V_mid_trunk_low			V_mid_trunk_upp			
		X1	Y1	Z1	X2	Y2	Z2	X3	Y3	Z3	X4	Y4	Z4	X5	Y5	Z5	X6	Y6	Z6	X7	Y7	Z7	X8	Y8	Z8	X9	Y9	Z9	X10	Y10	Z10	X11	Y11	Z11	X12	Y12	Z12	X13	Y13	Z13	X14	Y14	Z14	X15	Y15	Z15	X16	Y16	Z16	X17	Y17	Z17	X18	Y18	Z18	X19	Y19	Z19	X20	Y20	Z20	X21	Y21	Z21	X22	Y22	Z22	X23	Y23	Z23	X24	Y24	Z24	X25	Y25	Z25	X26	Y26	Z26	X27	Y27	Z27	X28	Y28	Z28	

521	3.467	-64.36834	1020.39490	-64.32199	-51.58935	858.76373	-52.38814	-193.19611	1125.41638	-67.73726	-272.35876	975.47699	-58.73730	-152.48529	1075.10889	135.15976	-240.37032	942.60461	220.93475	-272.23633	979.72089	210.85266	-292.16144	896.06030	256.20850	-328.81293	934.01569	247.13799	-364.55267	875.41028	277.58978	-393.02570	857.88098	201.60474	-241.17329	637.92413	228.31305	-283.33868	623.50885	271.35052	-215.21417	570.60504	268.40512	-248.82802	552.53357	273.91714	-163.31493	1076.17383	-244.33688	-257.11572	981.28961	-327.07037	-289.49222	995.61194	-294.98901	-306.67459	929.61121	-365.22385	-346.75534	945.16577	-330.89188	-366.40009	865.93500	-399.63998	-404.67612	853.54071	-328.66196	-237.87595	640.30511	-354.66599	-275.37436	610.25800	-397.03470	-201.83797	572.31628	-389.97058	-236.82796	555.53729	-398.21222	-113.04942	296.25604	256.48276	-119.80141	299.66266	-372.61398	
522	3.473	-57.60620	1020.21173	-64.34493	-45.15574	858.55688	-52.31046	-186.16695	1125.42224	-67.73764	-265.64493	975.64117	-58.84822	-145.77055	1074.94641	135.15546	-234.37158	942.47394	220.22919	-266.11203	979.73804	210.26485	-286.63083	896.07788	255.33449	-323.04672	934.22595	246.14400	-359.25174	875.72406	276.29425	-387.33997	858.59711	200.10782	-238.42104	636.98462	227.03308	-280.95056	622.61401	269.85471	-212.30353	570.06854	267.21912	-246.40524	551.74750	272.62146	-156.29544	1075.95300	-244.25142	-250.91225	981.50555	-326.85965	-283.02386	996.12866	-294.73795	-300.75797	930.04138	-364.68152	-340.66077	945.94989	-330.38043	-360.98560	866.67151	-398.89444	-399.10477	854.88196	-327.76062	-235.46298	639.43359	-352.80786	-272.92819	609.79767	-395.78424	-199.29652	571.48938	-387.86896	-234.46719	554.80548	-396.45901	-106.72910	296.23007	256.28561	-113.21270	299.59924	-372.68671	
523	3.480	-50.81001	1019.88177	-64.18680	-38.59554	858.30255	-52.46427	-179.22002	1125.44409	-67.73827	-258.96344	975.83911	-58.88755	-138.96460	1074.68237	135.20683	-228.44055	942.21710	219.64435	-259.95157	979.56396	209.74104	-280.82864	895.78638	254.41154	-317.14771	934.09534	245.18460	-353.70798	875.67694	274.98526	-381.48621	858.99591	198.68141	-235.10944	635.87836	225.94778	-278.53784	620.59131	267.45987	-208.72961	569.47064	266.15225	-243.50264	550.73657	271.43207	-149.31128	1076.00891	-244.25943	-244.48428	981.53113	-326.64963	-276.61850	996.43689	-294.61459	-294.71848	930.23486	-364.32477	-334.46033	946.41400	-330.02039	-355.29080	867.01868	-398.20996	-393.33231	855.85168	-326.98776	-232.59351	638.54181	-351.08481	-269.85156	609.23193	-394.44501	-196.23253	570.64789	-385.81516	-231.44199	553.96252	-394.74164	-100.63448	296.31522	256.22504	-106.63892	299.62924	-372.85461	
524	3.487	-43.96841	1019.67560	-64.26920	-32.28700	858.00946	-52.32576	-172.18877	1125.43542	-67.69244	-252.29694	976.02203	-58.94379	-132.23438	1074.39783	135.26064	-222.26666	941.70618	219.13951	-253.66379	979.17578	209.20572	-274.89288	895.28076	253.53117	-311.07419	933.65997	244.36812	-347.95895	875.34210	273.74509	-375.36090	859.01263	197.34050	-231.34531	634.67358	224.91058	-275.15002	619.38916	265.99899	-204.45998	568.83453	265.23007	-239.49191	549.82147	270.82721	-142.37819	1075.68152	-244.29433	-238.06244	981.44751	-326.53915	-270.14758	996.54474	-294.51575	-288.47278	930.16156	-364.03790	-328.13565	946.61743	-329.68967	-350.01343	867.36633	-397.81918	-387.49347	856.53503	-326.31915	-229.29292	637.60443	-349.24927	-266.16837	608.53137	-392.97653	-192.58261	569.90106	-383.97235	-227.87300	552.99261	-392.91074	-94.50124	296.37534	256.09808	-100.14581	299.65106	-372.93048	
525	3.493	-37.13991	1019.35107	-64.17839	-25.72733	857.80090	-52.44354	-165.29417	1125.47888	-67.71572	-245.63524	976.19452	-59.00475	-125.38165	1074.03174	135.31824	-216.06099	941.07501	218.67461	-247.29117	978.57452	208.77057	-268.69586	894.49902	252.67290	-304.83667	932.97070	243.57259	-341.90085	874.68854	272.50571	-369.10422	858.75659	195.98839	-227.06244	633.37720	223.87244	-270.62119	618.10425	265.35086	-199.46211	568.18304	264.47800	-234.45862	548.96747	269.92999	-135.35257	1075.40308	-244.44456	-231.52989	981.14404	-326.49030	-263.51263	996.44110	-294.49539	-282.15497	929.95154	-363.76587	-321.74515	946.60468	-329.50375	-343.34845	866.99182	-397.08466	-381.30606	856.91156	-325.76077	-225.31189	636.52405	-347.36209	-262.09314	607.57233	-391.48172	-188.20847	568.95563	-382.39926	-223.75836	551.88934	-391.12259	-88.40384	296.40906	255.98680	-93.69292	299.66086	-373.00952	
526	3.500	-30.35560	1019.11621	-64.19928	-19.15684	857.54950	-52.42416	-158.29651	1125.52063	-67.73544	-238.91815	976.37927	-59.02740	-118.61814	1073.64294	135.43954	-209.55205	940.09332	217.99313	-240.78090	977.73590	208.35669	-262.30185	893.47858	251.73871	-298.42029	931.98450	242.78629	-335.63751	873.77887	271.26968	-362.59109	858.06665	194.69073	-222.12389	631.91327	222.87918	-265.72037	616.79169	264.51083	-193.70355	567.53931	263.92142	-228.57381	547.95697	269.25891	-128.32376	1075.06897	-244.51648	-224.94673	980.67267	-326.43350	-256.96057	996.18976	-294.51035	-275.59793	929.50269	-363.54755	-315.23694	946.32770	-329.34503	-337.63608	866.68274	-396.95419	-375.06644	856.98376	-325.32660	-220.78500	635.39233	-345.84256	-257.57822	606.45526	-389.85306	-183.06485	568.13873	-380.86853	-219.16354	550.70526	-389.44849	-82.47103	296.50967	255.87016	-87.32928	299.72595	-373.17383	
527	3.507	-23.38863	1018.88464	-64.25478	-12.64613	857.36041	-52.51182	-151.33736	1125.55115	-67.72884	-232.22893	976.51752	-59.06849	-111.77472	1073.16968	135.56628	-202.94754	939.12164	217.46594	-234.17966	976.67328	208.01848	-255.67596	892.14301	250.85257	-291.87216	930.69781	242.13290	-329.13101	872.37494	270.15598	-355.84344	857.00842	193.39091	-216.41087	630.44958	221.97609	-259.51178	615.59241	264.52725	-187.15186	566.92639	263.58591	-221.82704	547.15033	269.06119	-121.44369	1074.84399	-244.69595	-218.08189	980.04230	-326.34265	-250.32051	995.68982	-294.58981	-268.89368	928.83459	-363.38950	-308.52045	945.81073	-329.24969	-330.34546	865.71667	-396.31183	-368.42328	856.63782	-324.96802	-215.66208	634.17383	-344.39572	-252.66826	605.16296	-388.39630	-177.24629	567.33948	-379.81723	-214.25821	549.24835	-387.84241	-76.58424	296.57196	255.75972	-80.96078	299.70609	-373.27341	
528	3.513	-16.66744	1018.64764	-64.21455	-6.11614	857.11646	-52.53325	-144.43408	1125.52417	-67.72990	-225.59262	976.70789	-59.09288	-105.00233	1072.69604	135.73288	-196.19133	937.78961	216.96532	-227.55206	975.45160	207.73630	-249.02301	890.68127	250.08868	-285.18848	929.17889	241.41330	-322.50510	870.84430	269.11975	-348.90253	855.65424	192.14258	-209.83060	629.00330	221.21864	-252.76039	614.10791	264.15067	-179.77451	566.36719	263.49680	-214.04929	546.43243	269.19388	-114.62441	1074.28857	-244.79367	-211.31007	979.28564	-326.33102	-243.50468	995.07831	-294.71509	-262.05762	927.89716	-363.22580	-301.68295	945.09796	-329.24094	-323.47015	864.74030	-395.96277	-361.66513	856.10132	-324.76614	-209.76476	632.89233	-343.25732	-247.12993	603.57227	-386.77283	-172.19310	564.87537	-378.90811	-208.55815	547.93597	-386.53494	-70.69406	296.57227	255.67226	-74.70006	299.75748	-373.32962	
